# xmcd CD database file
#
# Track frame offsets:
#	150
#	26184
#	50235
#	80359
#	129176
#	157762
#	188600
#	215116
#	239124
#
# Disc length: 3708 seconds
#
# Revision: 0
# Processed by: cddbd v1.5.2PL0 Copyright (c) Steve Scherf et al.
# Submitted via: CDex 1.51
#
DISCID=7a0e7a09
DTITLE=Miles,Andy - All That Jazz - Live in Berlin
DYEAR=2009
DGENRE=Jazz
TTITLE0=Night And Day
TTITLE1=My Foolish Heart
TTITLE2=Waltz For Debby
TTITLE3=Liebster Jesu wir sind hier
TTITLE4=Fairy Tale Waltz
TTITLE5=Autumn Part 1
TTITLE6=There´s A Boat Dat´s Leavin´ Soon For New York
TTITLE7=My Ship
TTITLE8=Life Is
EXTD=YEAR: 2009
EXTT0=
EXTT1=
EXTT2=
EXTT3=
EXTT4=
EXTT5=
EXTT6=
EXTT7=
EXTT8=
PLAYORDER=
